<?xml version="1.0" encoding="UTF-8" standalone="no"?><!-- Generator: Gravit.io --><svg xmlns="http://www.w3.org/2000/svg" xmlns:xlink="http://www.w3.org/1999/xlink" style="isolation:isolate" viewBox="0 0 2100 2100" width="2100pt" height="2100pt"><defs><clipPath id="_clipPath_Db9f8HWDUeL0TzUbTCak2xQViMeLIoZw"><rect width="2100" height="2100"/></clipPath></defs><g clip-path="url(#_clipPath_Db9f8HWDUeL0TzUbTCak2xQViMeLIoZw)"><path d="M 203 61 L 1888 61 C 1970.787 61 2038 128.213 2038 211 L 2038 1896 C 2038 1978.787 1970.787 2046 1888 2046 L 203 2046 C 120.213 2046 53 1978.787 53 1896 L 53 211 C 53 128.213 120.213 61 203 61 Z" style="stroke:none;fill:#021627;stroke-miterlimit:10;"/><path d="M 652.487 849.717 L 1207.367 294.846 C 1208.811 293.402 1208.811 291.056 1207.367 289.612 L 1194.238 276.483 C 1192.793 275.039 1190.448 275.039 1189.003 276.483 L 634.123 831.354 C 632.679 832.798 632.679 835.144 634.123 836.588 L 647.252 849.717 C 648.697 851.161 651.042 851.161 652.487 849.717 Z" style="fill:none;stroke:#FFFFFF;stroke-width:50;stroke-linecap:square;stroke-miterlimit:2;"/><path d="M 1128.564 1263.46 L 645.077 824.277 C 643.697 823.023 641.559 823.126 640.305 824.506 L 627.387 838.728 C 626.133 840.108 626.236 842.246 627.616 843.5 L 1111.103 1282.683 C 1112.483 1283.937 1114.621 1283.834 1115.875 1282.454 L 1128.793 1268.232 C 1130.047 1266.852 1129.944 1264.714 1128.564 1263.46 Z" style="fill:none;stroke:#FFFFFF;stroke-width:50;stroke-linecap:square;stroke-miterlimit:2;"/><path d="M 1222.064 1192.35 L 738.577 753.167 C 737.197 751.913 735.059 752.016 733.805 753.396 L 720.887 767.618 C 719.633 768.998 719.736 771.136 721.116 772.39 L 1204.603 1211.573 C 1205.983 1212.827 1208.121 1212.724 1209.375 1211.344 L 1222.293 1197.122 C 1223.547 1195.742 1223.444 1193.604 1222.064 1192.35 Z" style="fill:none;stroke:#FFFFFF;stroke-width:50;stroke-linecap:square;stroke-miterlimit:2;"/><path d="M 1294.304 1105.6 L 810.817 666.417 C 809.437 665.163 807.299 665.266 806.045 666.646 L 793.127 680.868 C 791.873 682.248 791.976 684.386 793.356 685.64 L 1276.843 1124.823 C 1278.223 1126.077 1280.361 1125.974 1281.615 1124.594 L 1294.533 1110.372 C 1295.787 1108.992 1295.684 1106.854 1294.304 1105.6 Z" style="fill:none;stroke:#FFFFFF;stroke-width:50;stroke-linecap:square;stroke-miterlimit:2;"/><path d="M 1463.804 1259.493 L 1279.077 1091.694 C 1278.221 1090.916 1276.895 1090.98 1276.118 1091.836 L 1261.474 1107.957 C 1260.696 1108.813 1260.76 1110.139 1261.616 1110.917 L 1446.343 1278.716 C 1447.199 1279.494 1448.525 1279.43 1449.302 1278.574 L 1463.946 1262.453 C 1464.724 1261.597 1464.66 1260.271 1463.804 1259.493 Z" style="fill:none;stroke:#FFFFFF;stroke-width:50;stroke-linecap:square;stroke-miterlimit:2;"/><path d="M 1294.724 1424.543 L 1109.997 1256.744 C 1109.141 1255.966 1107.815 1256.03 1107.038 1256.886 L 1092.394 1273.007 C 1091.616 1273.863 1091.68 1275.189 1092.536 1275.967 L 1277.263 1443.766 C 1278.119 1444.544 1279.445 1444.48 1280.222 1443.624 L 1294.866 1427.503 C 1295.644 1426.647 1295.58 1425.321 1294.724 1424.543 Z" style="fill:none;stroke:#FFFFFF;stroke-width:50;stroke-linecap:square;stroke-miterlimit:2;"/><path d="M 739.456 923.517 L 1294.327 368.646 C 1295.771 367.202 1295.771 364.856 1294.327 363.412 L 1281.198 350.283 C 1279.754 348.839 1277.408 348.839 1275.964 350.283 L 721.093 905.154 C 719.649 906.598 719.649 908.944 721.093 910.388 L 734.222 923.517 C 735.666 924.961 738.012 924.961 739.456 923.517 Z" style="fill:none;stroke:#FFFFFF;stroke-width:50;stroke-linecap:square;stroke-miterlimit:2;"/><path d="M 821.047 999.117 L 1375.927 444.246 C 1377.371 442.802 1377.371 440.456 1375.927 439.012 L 1362.798 425.883 C 1361.353 424.439 1359.008 424.439 1357.563 425.883 L 802.683 980.754 C 801.239 982.198 801.239 984.544 802.683 985.988 L 815.812 999.117 C 817.257 1000.561 819.602 1000.561 821.047 999.117 Z" style="fill:none;stroke:#FFFFFF;stroke-width:50;stroke-linecap:square;stroke-miterlimit:2;"/><path d="M 744.456 1674.117 L 1299.327 1119.246 C 1300.771 1117.802 1300.771 1115.456 1299.327 1114.012 L 1286.198 1100.883 C 1284.754 1099.439 1282.408 1099.439 1280.964 1100.883 L 726.093 1655.754 C 724.649 1657.198 724.649 1659.544 726.093 1660.988 L 739.222 1674.117 C 740.666 1675.561 743.012 1675.561 744.456 1674.117 Z" style="fill:none;stroke:#FFFFFF;stroke-width:50;stroke-linecap:square;stroke-miterlimit:2;"/><path d="M 822.047 1754.517 L 1376.927 1199.646 C 1378.371 1198.202 1378.371 1195.856 1376.927 1194.412 L 1363.798 1181.283 C 1362.353 1179.839 1360.008 1179.839 1358.563 1181.283 L 803.683 1736.154 C 802.239 1737.598 802.239 1739.944 803.683 1741.388 L 816.812 1754.517 C 818.257 1755.961 820.602 1755.961 822.047 1754.517 Z" style="fill:none;stroke:#FFFFFF;stroke-width:50;stroke-linecap:square;stroke-miterlimit:2;"/><path d="M 897.536 1830.517 L 1452.407 1275.646 C 1453.851 1274.202 1453.851 1271.856 1452.407 1270.412 L 1439.278 1257.283 C 1437.834 1255.839 1435.488 1255.839 1434.044 1257.283 L 879.173 1812.154 C 877.729 1813.598 877.729 1815.944 879.173 1817.388 L 892.302 1830.517 C 893.746 1831.961 896.092 1831.961 897.536 1830.517 Z" style="fill:none;stroke:#FFFFFF;stroke-width:50;stroke-linecap:square;stroke-miterlimit:2;"/><path d="M 1368.024 1324.493 L 1183.297 1156.694 C 1182.441 1155.916 1181.115 1155.98 1180.338 1156.836 L 1165.694 1172.957 C 1164.916 1173.813 1164.98 1175.139 1165.836 1175.917 L 1350.563 1343.716 C 1351.419 1344.494 1352.745 1344.43 1353.522 1343.574 L 1368.166 1327.453 C 1368.944 1326.597 1368.88 1325.271 1368.024 1324.493 Z" style="fill:none;stroke:#FFFFFF;stroke-width:50;stroke-linecap:square;stroke-miterlimit:2;"/><path d="M 1299.905 1351.678 L 1200.406 1261.3 C 1199.776 1260.728 1198.8 1260.775 1198.227 1261.405 L 1182.84 1278.344 C 1182.268 1278.974 1182.315 1279.95 1182.945 1280.522 L 1282.444 1370.9 C 1283.074 1371.472 1284.05 1371.425 1284.623 1370.795 L 1300.01 1353.856 C 1300.582 1353.226 1300.535 1352.25 1299.905 1351.678 Z" style="fill:none;stroke:#FFFFFF;stroke-width:50;stroke-linecap:square;stroke-miterlimit:2;"/><path d="M 1384.395 1263.936 L 1284.896 1173.55 C 1284.266 1172.978 1283.29 1173.025 1282.717 1173.655 L 1267.33 1190.595 C 1266.758 1191.225 1266.805 1192.201 1267.435 1192.774 L 1366.934 1283.16 C 1367.564 1283.732 1368.54 1283.685 1369.113 1283.055 L 1384.5 1266.115 C 1385.072 1265.485 1385.025 1264.509 1384.395 1263.936 Z" style="fill:none;stroke:#FFFFFF;stroke-width:50;stroke-linecap:square;stroke-miterlimit:2;"/><path d="M 830.465 904.978 L 730.966 814.6 C 730.336 814.028 729.36 814.075 728.787 814.705 L 713.4 831.644 C 712.828 832.274 712.875 833.25 713.505 833.822 L 813.004 924.2 C 813.634 924.772 814.61 924.725 815.183 924.095 L 830.57 907.156 C 831.142 906.526 831.095 905.55 830.465 904.978 Z" style="fill:none;stroke:#FFFFFF;stroke-width:50;stroke-linecap:square;stroke-miterlimit:2;"/><path d="M 909.715 831.176 L 810.216 740.79 C 809.586 740.218 808.61 740.265 808.037 740.895 L 792.65 757.835 C 792.078 758.465 792.125 759.441 792.755 760.014 L 892.254 850.4 C 892.884 850.972 893.86 850.925 894.433 850.295 L 909.82 833.355 C 910.392 832.725 910.345 831.749 909.715 831.176 Z" style="fill:none;stroke:#FFFFFF;stroke-width:50;stroke-linecap:square;stroke-miterlimit:2;"/></g></svg>